# xmcd
#
# Track frame offsets:
#       150
#       27880
#       44000
#       66042
#       95752
#       113120
#       136952
#       157472
#       180042
#       208017
#       233967
#
# Disc length: 3324 seconds
#
# Revision: 1
# Processed by: cddbd v1.5.1PL0 Copyright (c) Steve Scherf et al.
# Submitted via: WaveLab 4.01
#
DISCID=9a0cfa0b
DTITLE=todd terry - the todd terry unreleased projekt vol.1+2
DYEAR=1992
DGENRE=house
TTITLE0=i'll do anything
TTITLE1=work your butt
TTITLE2=shine II dawn
TTITLE3=when you hold me
TTITLE4=don't get carried away
TTITLE5=scat cat
TTITLE6=shadows dawn
TTITLE7=put your hands together
TTITLE8=balah hilah
TTITLE9=bring it back
TTITLE10=wanna ride (ur mix)
EXTD=
EXTT0=
EXTT1=
EXTT2=
EXTT3=
EXTT4=
EXTT5=
EXTT6=
EXTT7=
EXTT8=
EXTT9=
EXTT10=
PLAYORDER=
